<svg viewBox="0 0 800 800" xmlns="http://www.w3.org/2000/svg"><path d="M403.2916016315514,166.51509432181405 L404.1474577032792,169.63447093366676 M404.1474577032792,169.63447093366676 L399.2727610621094,171.06829283026423 M399.2727610621094,171.06829283026423 L395.40418175365335,168.83506334078538 M395.40418175365335,168.83506334078538 L397.88796455141295,166.02103400636315 M397.88796455141295,166.02103400636315 L403.2916016315514,166.51509432181405 M434.5539054496716,186.46931386986054 L424.13321257146913,179.8179706128744 M424.13321257146913,179.8179706128744 L413.7124456539544,173.16657860774035 M413.7124456539544,173.16657860774035 L403.2916016315514,166.51509432181405 M434.5539054496716,186.46931386986054 L425.2807223908148,182.27537735478379 M425.2807223908148,182.27537735478379 L414.5383928150503,179.48440985503532 M414.5383928150503,179.48440985503532 L402.9512093448122,178.25860718999832 M402.9512093448122,178.25860718999832 L391.19256386470647,178.6692029437141 M391.19256386470647,178.6692029437141 L379.94580877366707,180.69233938653502 M379.94580877366707,180.69233938653502 L369.86454786549234,184.21043969969145 M369.86454786549234,184.21043969969145 L361.53466408512094,189.01905681324607 M361.53466408512094,189.01905681324607 L355.44026043247516,194.83874065164918 M355.44026043247516,194.83874065164918 L351.93552274987024,201.33127825246328 M351.93552274987024,201.33127825246328 L351.2241557011215,208.11935416143754 M351.2241557011215,208.11935416143754 L353.34751174264534,214.80847178295636 M353.34751174264534,214.80847178295636 L358.18220843390077,221.00987919775577 M358.18220843390077,221.00987919775577 L365.44727814581034,226.36316693696958 M365.44727814581034,226.36316693696958 L374.7205073826882,230.55721160630807 M374.7205073826882,230.55721160630807 L385.4629649136634,233.34826248351135 M385.4629649136634,233.34826248351135 L397.05032880334954,234.57410464836687 M397.05032880334954,234.57410464836687 L408.8091658351732,234.1634954679683 M408.8091658351732,234.1634954679683 L420.05607972800794,232.14029574774972 M420.05607972800794,232.14029574774972 L430.13743030856125,228.6220968027129 M430.13743030856125,228.6220968027129 L438.4673140889327,223.81336829806386 M438.4673140889327,223.81336829806386 L444.56162806919986,217.99358582773235 M444.56162806919986,217.99358582773235 L448.0662069500094,211.5009849495742 M448.0662069500094,211.5009849495742 L448.7773824470402,204.71289561388488 M448.7773824470402,204.71289561388488 L446.65384598606835,198.02381749218813 M446.65384598606835,198.02381749218813 L441.8190213396023,191.8224934548091 M441.8190213396023,191.8224934548091 L434.5539054496716,186.46931386986054 M597.4417321901457,92.43747814110213 L638.9572859362466,123.02562594662515 M638.9572859362466,123.02562594662515 L666.5865724313381,158.46063989479973 M666.5865724313381,158.46063989479973 L678.7235021884359,196.68340494763666 M678.7235021884359,196.68340494763666 L674.6622195053159,235.47267580551397 M674.6622195053159,235.47267580551397 L654.6382124230773,272.57410983856175 M654.6382124230773,272.57410983856175 L619.8147564169465,305.8313325763786 M619.8147564169465,305.8313325763786 L572.2154191778513,333.3112824410067 M572.2154191778513,333.3112824410067 L514.6065035260434,353.41661229743 M514.6065035260434,353.41661229743 L450.3362759675598,364.9785950110818 M450.3362759675598,364.9785950110818 L383.14032726345135,367.3251156666105 M383.14032726345135,367.3251156666105 L316.92440026494904,360.3197679789961 M316.92440026494904,360.3197679789961 L255.53720581672957,344.36978633564087 M255.53720581672957,344.36978633564087 L202.54669057891059,320.402369231776 M202.54669057891059,320.402369231776 L161.03264468837276,289.8106898574481 M161.03264468837276,289.8106898574481 L133.4075363226649,254.37295338123232 M133.4075363226649,254.37295338123232 L121.27649781156418,216.14889853828743 M121.27649781156418,216.14889853828743 L125.34403524586662,177.3600661036699 M125.34403524586662,177.3600661036699 L145.37322769424983,140.2606982700146 M145.37322769424983,140.2606982700146 L180.19961177674563,107.00669616615136 M180.19961177674563,107.00669616615136 L227.79894901584746,79.53038356185937 M227.79894901584746,79.53038356185937 L285.4049365912983,59.42827433953789 M285.4049365912983,59.42827433953789 L349.66997878363236,47.86835782471496 M349.66997878363236,47.86835782471496 L416.85967273654524,45.5222755917697 M416.85967273654524,45.5222755917697 L483.06970848904047,52.526333488823695 M483.06970848904047,52.526333488823695 L544.4527248078776,68.47359260371667 M544.4527248078776,68.47359260371667 L597.4417321901457,92.43747814110213 M597.4406352714037,130.43775640996847 L597.4417321901457,92.43747814110213 M597.4406352714037,130.43775640996847 L544.451922284747,106.47373767530047 M544.451922284747,106.47373767530047 L483.06924699008897,90.52638992050993 M483.06924699008897,90.52638992050993 L416.85957907528575,83.52229309243103 M416.85957907528575,83.52229309243103 L349.67025840190456,85.86838836574663 M349.67025840190456,85.86838836574663 L285.40557324310043,97.42836913449014 M285.40557324310043,97.42836913449014 L227.79990571063715,117.53059009009058 M227.79990571063715,117.53059009009058 L180.20083292705218,145.007055413471 M180.20083292705218,145.007055413471 L145.3746423433965,178.26124234674728 M145.3746423433965,178.26124234674728 L125.34556118891715,215.3608163785414 M125.34556118891715,215.3608163785414 L121.27804637068073,254.14986439655252 M121.27804637068073,254.14986439655252 L133.40901749972863,292.3741316791459 M133.40901749972863,292.3741316791459 L161.0339723956563,327.8120651051139 M161.0339723956563,327.8120651051139 L202.5477876439284,358.40391449333083 M202.5477876439284,358.40391449333083 L255.5380084693797,382.37146479448427 M255.5380084693797,382.37146479448427 L316.92486184699374,398.3215350777426 M316.92486184699374,398.3215350777426 L383.14042094234225,405.32692169638415 M383.14042094234225,405.32692169638415 L450.3359962974181,402.98038800048414 M450.3359962974181,402.98038800048414 L514.6058667647535,391.4183410329077 M514.6058667647535,391.4183410329077 L572.214462341038,371.3128994431994 M572.214462341038,371.3128994431994 L619.8135351246161,343.8327968594756 M619.8135351246161,343.8327968594756 L654.636797664443,310.57538929223955 M654.636797664443,310.57538929223955 L674.6606935103958,273.4737490610488 M674.6606935103958,273.4737490610488 L678.7219536469509,234.68426261977714 M678.7219536469509,234.68426261977714 L666.5850913373677,196.46128512729445 M666.5850913373677,196.46128512729445 L638.9559583584825,161.0260742293729 M638.9559583584825,161.0260742293729 L597.4406352714037,130.43775640996847 M559.59901695074,152.28319725815655 L516.7663676450007,132.91200142062485 M516.7663676450007,132.91200142062485 L467.1483720385548,120.02102440353735 M467.1483720385548,120.02102440353735 L413.6284273657045,114.35927338588795 M413.6284273657045,114.35927338588795 L359.3165859657005,116.25573803646694 M359.3165859657005,116.25573803646694 L307.36890339509034,125.60022263364311 M307.36890339509034,125.60022263364311 L260.8040945486306,141.8497680031885 M260.8040945486306,141.8497680031885 L222.3281778578758,164.06019225922464 M222.3281778578758,164.06019225922464 L194.1772328291706,190.9409099492649 M194.1772328291706,190.9409099492649 L177.98744882868354,220.92988873486732 M177.98744882868354,220.92988873486732 L174.70001915863511,252.2843970446683 M174.70001915863511,252.2843970446683 L184.50635456998623,283.1822504308136 M184.50635456998623,283.1822504308136 L206.83683864247416,311.8277078203251 M206.83683864247416,311.8277078203251 L240.39396851056276,336.5558397507017 M240.39396851056276,336.5558397507017 L283.2276030411814,355.9293431244936 M283.2276030411814,355.9293431244936 L332.84832861969613,368.82209904837123 M332.84832861969613,368.82209904837123 L386.3721226067319,374.48469281969346 M386.3721226067319,374.48469281969346 L440.68805083241693,372.587941702016 M440.68805083241693,372.587941702016 L492.63912149730277,363.24210704382074 M492.63912149730277,363.24210704382074 L539.2058435356862,346.9904573030185 M539.2058435356862,346.9904573030185 L577.6817602264381,324.77765645113726 M577.6817602264381,324.77765645113726 L605.8307920632162,297.894834390053 M605.8307920632162,297.894834390053 L622.0171879694298,267.90450554431794 M622.0171879694298,267.90450554431794 L625.3005308138028,236.5497107675532 M625.3005308138028,236.5497107675532 L615.4903460882705,205.6527001338729 M615.4903460882705,205.6527001338729 L593.1571320437131,177.00902165216786 M593.1571320437131,177.00902165216786 L559.59901695074,152.28319725815655 M559.5901506216617,532.2638817124348 L559.59901695074,152.28319725815655 M559.5901506216617,532.2638817124348 L516.7598808801837,512.89160939407 M516.7598808801837,512.89160939407 L467.1446417532249,499.9999160030065 M467.1446417532249,499.9999160030065 L413.6276703037224,494.3378503503155 M413.6276703037224,494.3378503503155 L359.31884611473254,496.2344203914158 M359.31884611473254,496.2344203914158 L307.374049432385,505.57942427950826 M307.374049432385,505.57942427950826 L260.8118274666102,521.8298726606714 M260.8118274666102,521.8298726606714 L222.3380483267797,544.0415311694296 M222.3380483267797,544.0415311694296 L194.188667292601,570.9237426230457 M194.188667292601,570.9237426230457 L177.99978281866245,600.9143878708232 M177.99978281866245,600.9143878708232 L174.71253589711128,632.2706384928676 M174.71253589711128,632.2706384928676 L184.51832661897308,663.1702087845301 M184.51832661897308,663.1702087845301 L206.84757018484615,691.8172578926284 M206.84757018484615,691.8172578926284 L240.40283579531243,716.5467638493424 M240.40283579531243,716.5467638493424 L283.23409065220335,735.9213437039887 M283.23409065220335,735.9213437039887 L332.85205944790926,748.8148160018588 M332.85205944790926,748.8148160018588 L386.3728797839075,754.4777244082302 M386.3728797839075,754.4777244082302 L440.6857903444992,752.5808679000288 M440.6857903444992,752.5808679000288 L492.63397474467797,743.234513950905 M492.63397474467797,743.234513950905 L539.1981096898054,726.9819611984653 M539.1981096898054,726.9819611984653 L577.6718888296331,704.7679260938401 M577.6718888296331,704.7679260938401 L605.8193568844557,677.8836102691608 M605.8193568844557,677.8836102691608 L622.0048536405652,647.8916149612378 M622.0048536405652,647.8916149612378 L625.2880141905201,616.5350778722272 M625.2880141905201,616.5350778722272 L615.4783745821669,585.6363503330374 M615.4783745821669,585.6363503330374 L593.1464013475461,556.991080132762 M593.1464013475461,556.991080132762 L559.5901506216617,532.2638817124348" stroke="black"  stroke-width="4"  fill="red"/></svg>