<svg viewBox="0 0 800 800" xmlns="http://www.w3.org/2000/svg"><path d="M591.9386884681728,137.94946808144488 L591.9397548198101,101.0081182811578 M591.9397548198101,101.0081182811578 L632.2984222547234,130.7438865255839 M632.2984222547234,130.7438865255839 L659.1577818079861,165.1914565190395 M659.1577818079861,165.1914565190395 L670.9564998196329,202.349093212134 M670.9564998196329,202.349093212134 L667.0083901986065,240.05744926996144 M667.0083901986065,240.05744926996144 L647.5423787974626,276.12500232864534 M647.5423787974626,276.12500232864534 L613.6893248678191,308.4554681702684 M613.6893248678191,308.4554681702684 L567.4164066862729,335.16965255757816 M567.4164066862729,335.16965255757816 L511.41284035312157,354.71472056527205 M511.41284035312157,354.71472056527205 L448.9335884596638,365.95451320015445 M448.9335884596638,365.95451320015445 L383.6101445449287,368.2356449259845 M383.6101445449287,368.2356449259845 L319.2394127230504,361.42551060092046 M319.2394127230504,361.42551060092046 L259.5628543745853,345.9199964826703 M259.5628543745853,345.9199964826703 L208.04899056423713,322.62046344297005 M208.04899056423713,322.62046344297005 L167.6917889664795,292.8812620416171 M167.6917889664795,292.8812620416171 L140.83649111344903,258.4310453869976 M140.83649111344903,258.4310453869976 L129.04350018036723,221.2721548455175 M129.04350018036723,221.2721548455175 L132.9976902555867,183.56422499370072 M132.9976902555867,183.56422499370072 L152.46874252572744,147.49868055700574 M152.46874252572744,147.49868055700574 L186.32464293698007,115.1713456020729 M186.32464293698007,115.1713456020729 L232.59756111853284,88.46069711798589 M232.59756111853284,88.46069711798589 L288.5982809700826,68.91875999712619 M288.5982809700826,68.91875999712619 L351.07249199453895,57.68097598368496 M351.07249199453895,57.68097598368496 L416.38985545506796,55.4002704632079 M416.38985545506796,55.4002704632079 L480.75486019837155,62.20915093944683 M480.75486019837155,62.20915093944683 L540.4273568466058,77.71201839612365 M540.4273568466058,77.71201839612365 L591.9397548198101,101.0081182811578 M591.9386884681728,137.94946808144488 L540.426576686853,114.6532387108482 M540.426576686853,114.6532387108482 L480.7544115597042,99.15028508434273 M480.7544115597042,99.15028508434273 L416.3897644038045,92.34136676194385 M416.3897644038045,92.34136676194385 L351.0727638208748,94.6220849594041 M351.0727638208748,94.6220849594041 L288.5988998807326,105.85993143624455 M288.5988998807326,105.85993143624455 L232.59849115374544,125.40197717678643 M232.59849115374544,125.40197717678643 L186.3258300583036,152.11277412424053 M186.3258300583036,152.11277412424053 L152.4701177537877,184.44028875806808 M152.4701177537877,184.44028875806808 L132.9991736761976,220.5060336469159 M132.9991736761976,220.5060336469159 L129.0450055868173,258.214173074607 M129.0450055868173,258.214173074607 L140.8379310155371,295.37327013582103 M140.8379310155371,295.37327013582103 L167.6930796754276,329.82367825192523 M167.6930796754276,329.82367825192523 L208.0500570580741,359.5630449295034 M208.0500570580741,359.5630449295034 L259.56363466024806,382.8627074547719 M259.56363466024806,382.8627074547719 L319.2398614424954,398.368307742856 M319.2398614424954,398.368307742856 L383.61023561333224,405.17847991408235 M383.61023561333224,405.17847991408235 L448.9333165829038,402.89733551126835 M448.9333165829038,402.89733551126835 L511.4122213360348,391.6574804129826 M511.4122213360348,391.6574804129826 L567.4154765129945,372.1123037856007 M567.4154765129945,372.1123037856007 L613.6881376084295,345.39797093491666 M613.6881376084295,345.39797093491666 L647.5410034629656,313.0673254143928 M647.5410034629656,313.0673254143928 L667.0069067275715,276.99957190355235 M667.0069067275715,276.99957190355235 L670.9549944303228,239.29100626984987 M670.9549944303228,239.29100626984987 L659.1563419866759,202.1331630570237 M659.1563419866759,202.1331630570237 L632.2971316716851,167.68540160208858 M632.2971316716851,167.68540160208858 L591.9386884681728,137.94946808144488 M463.98185270083496,174.87561760889153 L477.4345813807445,184.78792133808153 M477.4345813807445,184.78792133808153 L486.38725393010543,196.27073735519105 M486.38725393010543,196.27073735519105 L490.3195204284886,208.65675923586934 M490.3195204284886,208.65675923586934 L489.00280350991625,221.2261593117879 M489.00280350991625,221.2261593117879 L482.5135745136448,233.2484565631889 M482.5135745136448,233.2484565631889 L471.2289063060435,244.0249291263899 M471.2289063060435,244.0249291263899 L455.8046014224878,252.9292636632314 M455.8046014224878,252.9292636632314 L437.1370648433225,259.44393877222467 M437.1370648433225,259.44393877222467 L416.31120290480544,263.1903121997411 M416.31120290480544,263.1903121997411 L394.5374051930019,263.950644833096 M394.5374051930019,263.950644833096 L373.081124609354,261.6807412220939 M373.081124609354,261.6807412220939 L353.1893921960358,256.5125283213232 M353.1893921960358,256.5125283213232 L336.0182679200532,248.74639742192733 M336.0182679200532,248.74639742192733 L322.5657021108759,238.83371223088307 M322.5657021108759,238.83371223088307 L313.6134808614396,227.35060214034323 M313.6134808614396,227.35060214034323 L309.68185070535776,214.9644409431498 M309.68185070535776,214.9644409431498 L310.9992432296888,202.39508822344442 M310.9992432296888,202.39508822344442 L317.48903232265644,190.37301415230905 M317.48903232265644,190.37301415230905 L328.77401680589935,179.5968894653606 M328.77401680589935,179.5968894653606 L344.1983216894552,170.69294780661394 M344.1983216894552,170.69294780661394 L362.8655419929789,164.17862057394441 M362.8655419929789,164.17862057394441 L383.6908438347997,160.43247032652658 M383.6908438347997,160.43247032652658 L405.4639659408445,159.67218504949295 M405.4639659408445,159.67218504949295 L426.9196101821908,161.94194934406696 M426.9196101821908,161.94194934406696 L446.8108912955845,167.10986817118993 M446.8108912955845,167.10986817118993 L463.98185270083496,174.87561760889153 M555.1515773448864,159.18615656579124 L513.512516975881,140.35476495278795 M513.512516975881,140.35476495278795 L465.2771930364622,127.82301221439161 M465.2771930364622,127.82301221439161 L413.2486530488587,122.31903344493924 M413.2486530488587,122.31903344493924 L360.45028359325744,124.16265057703583 M360.45028359325744,124.16265057703583 L309.95019252609706,133.2467386398988 M309.95019252609706,133.2467386398988 L264.682974222859,149.04346874131556 M264.682974222859,149.04346874131556 L227.27924030008947,170.6349698837488 M227.27924030008947,170.6349698837488 L199.91275892444997,196.76662050074214 M199.91275892444997,196.76662050074214 L184.17412486178614,225.9199163696299 M184.17412486178614,225.9199163696299 L180.97830380684934,256.4006894601086 M180.97830380684934,256.4006894601086 L190.51137259457087,286.4375329258243 M190.51137259457087,286.4375329258243 L212.21958792644048,314.2847464153673 M212.21958792644048,314.2847464153673 L244.84160358589853,338.32379594769964 M244.84160358589853,338.32379594769964 L286.4816217251774,357.1574307943856 M286.4816217251774,357.1574307943856 L334.71959956234986,369.6909128679604 M334.71959956234986,369.6909128679604 L386.75188159786177,375.1957109066296 M386.75188159786177,375.1957109066296 L439.5542239942922,373.35181529022253 M439.5542239942922,373.35181529022253 L490.0576087419595,364.2664147875927 M490.0576087419595,364.2664147875927 L535.3266869234751,348.46763895603266 M535.3266869234751,348.46763895603266 L572.7304208462417,326.8738274447693 M572.7304208462417,326.8738274447693 L600.0950423436007,300.7401310978396 M600.0950423436007,300.7401310978396 L615.8303827257594,271.5855227900464 M615.8303827257594,271.5855227900464 L619.0222308398727,241.10447121538823 M619.0222308398727,241.10447121538823 L609.4854200042469,211.0684470177154 M609.4854200042469,211.0684470177154 L587.7745507746229,183.2229628643387 M587.7745507746229,183.2229628643387 L555.1515773448864,159.18615656579124 M463.98185270083496,174.87561760889153 L443.72149324464203,161.94352304882528 M443.72149324464203,161.94352304882528 L423.4608387367463,149.01119901676847 M423.4608387367463,149.01119901676847 L403.19989453322984,136.0787304905361 M403.19989453322984,136.0787304905361 L404.03190565591154,139.11116465494285 M404.03190565591154,139.11116465494285 L399.29302261347783,140.50502344340333 M399.29302261347783,140.50502344340333 L395.5322255357113,138.3340379409904 M395.5322255357113,138.3340379409904 L397.94680782622964,135.59844049472423 M397.94680782622964,135.59844049472423 L403.19989453322984,136.0787304905361 M555.1429580879008,528.5781721310696 L555.1515773448864,159.18615656579124 M555.1429580879008,528.5781721310696 L513.5062109734226,509.74573403480815 M513.5062109734226,509.74573403480815 L465.2735667005113,497.21328488515275 M465.2735667005113,497.21328488515275 L413.2479170834191,491.70900024838426 M413.2479170834191,491.70900024838426 L360.45248076022034,493.5527198341546 M360.45248076022034,493.5527198341546 L309.95519516219474,502.63731271719934 M309.95519516219474,502.63731271719934 L264.6904916527589,518.43492066661 M264.6904916527589,518.43492066661 L227.28883571520439,540.027621667666 M227.28883571520439,540.027621667666 L199.9238747512966,566.1607244225195 M199.9238747512966,566.1607244225195 L184.1861151486735,595.3156403153899 M184.1861151486735,595.3156403153899 L180.99047174970323,625.7981071662562 M180.99047174970323,625.7981071662562 L190.523011026435,655.8366196936254 M190.523011026435,655.8366196936254 L212.23002042006212,683.6853805463925 M212.23002042006212,683.6853805463925 L244.8502237719245,707.7257658159847 M244.8502237719245,707.7257658159847 L286.4879285502599,726.5604471459494 M286.4879285502599,726.5604471459494 L334.7232264260557,739.0946256307991 M334.7232264260557,739.0946256307991 L386.75261767528485,744.5997295367921 M386.75261767528485,744.5997295367921 L439.5520264978872,742.7557314667089 M439.5520264978872,742.7557314667089 L490.0526054104654,733.6698261438851 M490.0526054104654,733.6698261438851 L535.3191685915313,717.870172464312 M535.3191685915313,717.870172464312 L572.7208245290828,696.2751610944044 M572.7208245290828,696.2751610944044 L600.0839258213575,670.1400126095957 M600.0839258213575,670.1400126095957 L615.8183921094299,640.9837842778077 M615.8183921094299,640.9837842778077 L619.0100630090021,610.5010389427596 M619.0100630090021,610.5010389427596 L609.4737821001377,580.4633456834407 M609.4737821001377,580.4633456834407 L587.7641191036255,552.616314166856 M587.7641191036255,552.616314166856 L555.1429580879008,528.5781721310696" stroke="black"  stroke-width="4"  fill="red"/></svg>